<svg width="176" height="21" viewBox="0 0 176 21" fill="none" xmlns="http://www.w3.org/2000/svg">
<g filter="url(#filter0_n_980_11509)">
<path d="M168.854 9.44905L162.349 8.94531C159.528 8.70654 158.459 8.26103 158.459 6.00437C158.459 3.57009 159.528 2.85669 162.824 2.85669H168.021C170.493 2.85669 171.62 3.49147 172.005 5.33465C172.048 5.55013 172.214 5.72192 172.427 5.77725L174.273 6.2577C174.669 6.35961 175.042 6.03349 174.998 5.62583C174.605 1.78514 172.639 0.0322266 168.021 0.0322266H162.795C157.419 0.0322266 155.576 2.021 155.576 5.97234C155.576 9.92368 157.478 11.1408 162.052 11.4961L168.557 12.0318C171.379 12.2386 172.476 12.7452 172.476 15.031C172.476 17.4362 171.379 18.1787 168.141 18.1787H162.468C160.005 18.1787 158.878 17.5497 158.488 15.724C158.441 15.5086 158.278 15.3397 158.066 15.2843L156.217 14.801C155.821 14.6962 155.448 15.0252 155.492 15.4328C155.891 19.2532 157.856 21.0002 162.466 21.0002H168.138C173.513 21.0002 175.356 19.0115 175.356 15.031C175.356 11.0506 173.397 9.8043 168.851 9.44614L168.854 9.44905Z" fill="#39007A"/>
<path d="M139.581 21C139.194 21 138.986 20.7918 138.986 20.4051V2.82578H131.818C131.431 2.82578 131.223 2.61756 131.223 2.23088V0.5949C131.223 0.208215 131.431 0 131.818 0H149.099C149.486 0 149.694 0.208215 149.694 0.5949V2.23088C149.694 2.61756 149.486 2.82578 149.099 2.82578H141.931V20.4051C141.931 20.7918 141.723 21 141.336 21H139.581Z" fill="#39007A"/>
<path d="M105.663 21C105.277 21 105.068 20.7918 105.068 20.4051V0.5949C105.068 0.208215 105.277 0 105.663 0H107.388C107.775 0 107.983 0.208215 107.983 0.5949V8.95326H121.428V0.5949C121.428 0.208215 121.636 0 122.023 0H123.778C124.165 0 124.373 0.208215 124.373 0.5949V20.4051C124.373 20.7918 124.165 21 123.778 21H122.023C121.636 21 121.428 20.7918 121.428 20.4051V11.6601H107.983V20.4051C107.983 20.7918 107.775 21 107.388 21H105.663Z" fill="#39007A"/>
<path d="M83.4402 21C78.3241 21 76.3906 18.3824 76.3906 13.772V7.25779C76.3906 2.61756 78.3241 0 83.4402 0H90.1923C95.0705 0 96.647 1.11834 97.0972 3.63462C97.15 3.93001 97.2051 4.47063 97.227 4.87055C97.2374 5.05879 97.142 5.23462 96.9843 5.33796L94.8245 6.75326C94.6107 6.89333 94.3269 6.73998 94.3269 6.48442C94.1782 3.6289 93.0479 2.82578 90.1923 2.82578H83.4402C80.436 2.82578 79.3056 3.77762 79.3056 7.16856V13.8612C79.3056 17.2224 80.4657 18.1742 83.4402 18.1742H90.1923C93.1668 18.1742 94.3269 17.2224 94.3269 13.8612V13.1116C94.3269 12.8028 94.0765 12.5524 93.7677 12.5524H93.4342C93.1542 12.5524 90.3632 12.5524 88.7137 12.5524C88.2407 12.5524 87.9822 12.0017 88.2835 11.6371L89.5961 10.0486C89.7023 9.92004 89.8594 9.84561 90.0261 9.84561C90.8435 9.84561 93.0989 9.84561 93.4342 9.84561H96.647C97.0337 9.84561 97.2419 10.0538 97.2419 10.4405V13.772C97.2419 18.3824 95.3085 21 90.1923 21H83.4402Z" fill="#39007A"/>
<path d="M66.4992 21C66.1125 21 65.9043 20.7918 65.9043 20.4051V0.5949C65.9043 0.208215 66.1125 0 66.4992 0H68.2244C68.6111 0 68.8193 0.208215 68.8193 0.5949V20.4051C68.8193 20.7918 68.6111 21 68.2244 21H66.4992Z" fill="#39007A"/>
<path d="M51.8033 9.44905L45.2983 8.94531C42.4768 8.70654 41.4081 8.26103 41.4081 6.00437C41.4081 3.57009 42.4768 2.85669 45.773 2.85669H50.9706C53.4427 2.85669 54.5696 3.49147 54.9539 5.33465C54.9976 5.55013 55.1636 5.72192 55.3761 5.77725L57.2222 6.2577C57.6182 6.35961 57.991 6.03349 57.9473 5.62583C57.5542 1.78514 55.5887 0.0322266 50.9706 0.0322266H45.7438C40.3686 0.0322266 38.5254 2.021 38.5254 5.97234C38.5254 9.92368 40.4269 11.1408 45.0013 11.4961L51.5063 12.0318C54.3279 12.2386 55.4257 12.7452 55.4257 15.031C55.4257 17.4362 54.3279 18.1787 51.0899 18.1787H45.4177C42.9543 18.1787 41.8274 17.5497 41.4373 15.724C41.3907 15.5086 41.2276 15.3397 41.015 15.2843L39.166 14.801C38.77 14.6962 38.3973 15.0252 38.441 15.4328C38.8399 19.2532 40.8054 21.0002 45.4148 21.0002H51.087C56.4623 21.0002 58.3054 19.0115 58.3054 15.031C58.3054 11.0506 56.3458 9.8043 51.8004 9.44614L51.8033 9.44905Z" fill="#39007A"/>
<path d="M11.7062 21C11.3195 21 11.1113 20.7918 11.1113 20.4051V0.5949C11.1113 0.208215 11.3195 0 11.7062 0H13.5802C13.8776 0 14.1453 0.11898 14.3238 0.356941L27.8578 16.7465V0.5949C27.8578 0.208215 28.066 0 28.4527 0H30.1779C30.5646 0 30.7728 0.208215 30.7728 0.5949V20.4051C30.7728 20.7918 30.5646 21 30.1779 21H28.2445C27.947 21 27.6793 20.881 27.5008 20.6431L14.0263 4.34278V20.4051C14.0263 20.7918 13.8181 21 13.4314 21H11.7062Z" fill="#39007A"/>
<path d="M0.594901 21C0.208215 21 0 20.7918 0 20.4051V0.5949C0 0.208215 0.208215 0 0.594901 0H2.32011C2.7068 0 2.91501 0.208215 2.91501 0.5949V20.4051C2.91501 20.7918 2.7068 21 2.32011 21H0.594901Z" fill="#39007A"/>
</g>
<defs>
<filter id="filter0_n_980_11509" x="0" y="0" width="175.355" height="21" filterUnits="userSpaceOnUse" color-interpolation-filters="sRGB">
<feFlood flood-opacity="0" result="BackgroundImageFix"/>
<feBlend mode="normal" in="SourceGraphic" in2="BackgroundImageFix" result="shape"/>
<feTurbulence type="fractalNoise" baseFrequency="19.711540222167969 19.711540222167969" stitchTiles="stitch" numOctaves="3" result="noise" seed="7140" />
<feColorMatrix in="noise" type="luminanceToAlpha" result="alphaNoise" />
<feComponentTransfer in="alphaNoise" result="coloredNoise1">
<feFuncA type="discrete" tableValues="1 1 1 1 1 1 1 1 1 1 1 1 1 1 1 1 1 1 1 1 1 1 1 1 1 1 1 1 1 1 1 1 1 1 1 1 1 1 1 1 1 1 1 1 1 1 1 1 1 1 1 0 0 0 0 0 0 0 0 0 0 0 0 0 0 0 0 0 0 0 0 0 0 0 0 0 0 0 0 0 0 0 0 0 0 0 0 0 0 0 0 0 0 0 0 0 0 0 0 0 "/>
</feComponentTransfer>
<feComposite operator="in" in2="shape" in="coloredNoise1" result="noise1Clipped" />
<feFlood flood-color="rgba(0, 0, 0, 0.25)" result="color1Flood" />
<feComposite operator="in" in2="noise1Clipped" in="color1Flood" result="color1" />
<feMerge result="effect1_noise_980_11509">
<feMergeNode in="shape" />
<feMergeNode in="color1" />
</feMerge>
</filter>
</defs>
</svg>
